<?xml version="1.0" encoding="UTF-8" standalone="no"?>
<!DOCTYPE svg PUBLIC "-//W3C//DTD SVG 1.1//EN"
 "http://www.w3.org/Graphics/SVG/1.1/DTD/svg11.dtd">
<!-- Generated by graphviz version 2.47.0 (20210316.0004)
 -->
<!-- Title: dependencies Pages: 1 -->
<svg width="573pt" height="211pt"
 viewBox="0.00 0.00 573.00 211.00" xmlns="http://www.w3.org/2000/svg" xmlns:xlink="http://www.w3.org/1999/xlink">
<g id="graph0" class="graph" transform="scale(1 1) rotate(0) translate(4 207)">
<title>dependencies</title>
<polygon fill="white" stroke="transparent" points="-4,4 -4,-207 569,-207 569,4 -4,4"/>
<text text-anchor="start" x="261.51" y="-42.4" font-family="Times-12" font-weight="bold" font-size="14.00">Legend</text>
<polygon fill="#ffffb3" stroke="transparent" points="48.5,-10 48.5,-30 68.5,-30 68.5,-10 48.5,-10"/>
<text text-anchor="start" x="72.13" y="-15.4" font-family="Times-12" font-size="14.00"> &#160;Declarations</text>
<polygon fill="#8dd3c7" stroke="transparent" points="161.5,-10 161.5,-30 181.5,-30 181.5,-10 161.5,-10"/>
<text text-anchor="start" x="185.23" y="-15.4" font-family="Times-12" font-size="14.00"> &#160;Module</text>
<polygon fill="#80b1d3" stroke="transparent" points="247.5,-10 247.5,-30 267.5,-30 267.5,-10 247.5,-10"/>
<text text-anchor="start" x="271.28" y="-15.4" font-family="Times-12" font-size="14.00"> &#160;Bootstrap</text>
<polygon fill="#fdb462" stroke="transparent" points="344.5,-10 344.5,-30 364.5,-30 364.5,-10 344.5,-10"/>
<text text-anchor="start" x="368.17" y="-15.4" font-family="Times-12" font-size="14.00"> &#160;Providers</text>
<polygon fill="#fb8072" stroke="transparent" points="440.5,-10 440.5,-30 460.5,-30 460.5,-10 440.5,-10"/>
<text text-anchor="start" x="464.23" y="-15.4" font-family="Times-12" font-size="14.00"> &#160;Exports</text>
<g id="clust1" class="cluster">
<title>cluster_AppModule</title>
<polygon fill="none" stroke="black" stroke-dasharray="1,5" points="8,-70 8,-195 557,-195 557,-70 8,-70"/>
</g>
<g id="clust3" class="cluster">
<title>cluster_AppModule_imports</title>
<polygon fill="none" stroke="black" points="154,-78 154,-130 549,-130 549,-78 154,-78"/>
</g>
<g id="clust6" class="cluster">
<title>cluster_AppModule_providers</title>
<polygon fill="none" stroke="black" points="16,-78 16,-130 146,-130 146,-78 16,-78"/>
</g>
<!-- DatabaseModule -->
<g id="node1" class="node">
<title>DatabaseModule</title>
<polygon fill="#8dd3c7" stroke="black" points="541.35,-122 538.35,-126 517.35,-126 514.35,-122 430.65,-122 430.65,-86 541.35,-86 541.35,-122"/>
<text text-anchor="middle" x="486" y="-99.8" font-family="Times,serif" font-size="14.00">DatabaseModule</text>
</g>
<!-- AppModule -->
<g id="node4" class="node">
<title>AppModule</title>
<polygon fill="#8dd3c7" stroke="black" points="338.66,-187 335.66,-191 314.66,-191 311.66,-187 255.34,-187 255.34,-151 338.66,-151 338.66,-187"/>
<text text-anchor="middle" x="297" y="-164.8" font-family="Times,serif" font-size="14.00">AppModule</text>
</g>
<!-- DatabaseModule&#45;&gt;AppModule -->
<g id="edge1" class="edge">
<title>DatabaseModule&#45;&gt;AppModule</title>
<path fill="none" stroke="black" d="M486,-122.11C486,-141.34 486,-169 486,-169 486,-169 348.95,-169 348.95,-169"/>
<polygon fill="black" stroke="black" points="348.95,-165.5 338.95,-169 348.95,-172.5 348.95,-165.5"/>
</g>
<!-- HealthModule -->
<g id="node2" class="node">
<title>HealthModule</title>
<polygon fill="#8dd3c7" stroke="black" points="412.37,-122 409.37,-126 388.37,-126 385.37,-122 315.63,-122 315.63,-86 412.37,-86 412.37,-122"/>
<text text-anchor="middle" x="364" y="-99.8" font-family="Times,serif" font-size="14.00">HealthModule</text>
</g>
<!-- HealthModule&#45;&gt;AppModule -->
<g id="edge2" class="edge">
<title>HealthModule&#45;&gt;AppModule</title>
<path fill="none" stroke="black" d="M327.2,-122.11C327.2,-122.11 327.2,-140.99 327.2,-140.99"/>
<polygon fill="black" stroke="black" points="323.7,-140.99 327.2,-150.99 330.7,-140.99 323.7,-140.99"/>
</g>
<!-- ImageUploadModule -->
<g id="node3" class="node">
<title>ImageUploadModule</title>
<polygon fill="#8dd3c7" stroke="black" points="297.74,-122 294.74,-126 273.74,-126 270.74,-122 162.26,-122 162.26,-86 297.74,-86 297.74,-122"/>
<text text-anchor="middle" x="230" y="-99.8" font-family="Times,serif" font-size="14.00">ImageUploadModule</text>
</g>
<!-- ImageUploadModule&#45;&gt;AppModule -->
<g id="edge3" class="edge">
<title>ImageUploadModule&#45;&gt;AppModule</title>
<path fill="none" stroke="black" d="M276.52,-122.11C276.52,-122.11 276.52,-140.99 276.52,-140.99"/>
<polygon fill="black" stroke="black" points="273.02,-140.99 276.52,-150.99 280.02,-140.99 273.02,-140.99"/>
</g>
<!-- AppService -->
<g id="node5" class="node">
<title>AppService</title>
<ellipse fill="#fdb462" stroke="black" cx="81" cy="-104" rx="56.74" ry="18"/>
<text text-anchor="middle" x="81" y="-99.8" font-family="Times,serif" font-size="14.00">AppService</text>
</g>
<!-- AppService&#45;&gt;AppModule -->
<g id="edge4" class="edge">
<title>AppService&#45;&gt;AppModule</title>
<path fill="none" stroke="black" d="M81,-122.11C81,-141.34 81,-169 81,-169 81,-169 245.1,-169 245.1,-169"/>
<polygon fill="black" stroke="black" points="245.1,-172.5 255.1,-169 245.1,-165.5 245.1,-172.5"/>
</g>
</g>
</svg>
