<?xml version="1.0" encoding="UTF-8" standalone="no"?>
<!DOCTYPE svg PUBLIC "-//W3C//DTD SVG 1.1//EN"
 "http://www.w3.org/Graphics/SVG/1.1/DTD/svg11.dtd">
<!-- Generated by graphviz version 2.47.0 (20210316.0004)
 -->
<!-- Title: dependencies Pages: 1 -->
<svg width="573pt" height="287pt"
 viewBox="0.00 0.00 573.00 287.00" xmlns="http://www.w3.org/2000/svg" xmlns:xlink="http://www.w3.org/1999/xlink">
<g id="graph0" class="graph" transform="scale(1 1) rotate(0) translate(4 283)">
<title>dependencies</title>
<polygon fill="white" stroke="transparent" points="-4,4 -4,-283 569,-283 569,4 -4,4"/>
<text text-anchor="start" x="261.51" y="-42.4" font-family="Times-12" font-weight="bold" font-size="14.00">Legend</text>
<polygon fill="#ffffb3" stroke="transparent" points="48.5,-10 48.5,-30 68.5,-30 68.5,-10 48.5,-10"/>
<text text-anchor="start" x="72.13" y="-15.4" font-family="Times-12" font-size="14.00"> &#160;Declarations</text>
<polygon fill="#8dd3c7" stroke="transparent" points="161.5,-10 161.5,-30 181.5,-30 181.5,-10 161.5,-10"/>
<text text-anchor="start" x="185.23" y="-15.4" font-family="Times-12" font-size="14.00"> &#160;Module</text>
<polygon fill="#80b1d3" stroke="transparent" points="247.5,-10 247.5,-30 267.5,-30 267.5,-10 247.5,-10"/>
<text text-anchor="start" x="271.28" y="-15.4" font-family="Times-12" font-size="14.00"> &#160;Bootstrap</text>
<polygon fill="#fdb462" stroke="transparent" points="344.5,-10 344.5,-30 364.5,-30 364.5,-10 344.5,-10"/>
<text text-anchor="start" x="368.17" y="-15.4" font-family="Times-12" font-size="14.00"> &#160;Providers</text>
<polygon fill="#fb8072" stroke="transparent" points="440.5,-10 440.5,-30 460.5,-30 460.5,-10 440.5,-10"/>
<text text-anchor="start" x="464.23" y="-15.4" font-family="Times-12" font-size="14.00"> &#160;Exports</text>
<g id="clust1" class="cluster">
<title>cluster_AppModule</title>
<polygon fill="none" stroke="black" stroke-dasharray="1,5" points="8,-146 8,-271 557,-271 557,-146 8,-146"/>
</g>
<g id="clust3" class="cluster">
<title>cluster_AppModule_imports</title>
<polygon fill="none" stroke="black" points="154,-154 154,-206 549,-206 549,-154 154,-154"/>
</g>
<g id="clust6" class="cluster">
<title>cluster_AppModule_providers</title>
<polygon fill="none" stroke="black" points="16,-154 16,-206 146,-206 146,-154 16,-154"/>
</g>
<g id="clust19" class="cluster">
<title>cluster_ImageUploadModule</title>
<polygon fill="none" stroke="black" stroke-dasharray="1,5" points="121,-70 121,-138 339,-138 339,-70 121,-70"/>
</g>
<g id="clust24" class="cluster">
<title>cluster_ImageUploadModule_providers</title>
<polygon fill="none" stroke="black" points="129,-78 129,-130 331,-130 331,-78 129,-78"/>
</g>
<!-- DatabaseModule -->
<g id="node1" class="node">
<title>DatabaseModule</title>
<polygon fill="#8dd3c7" stroke="black" points="541.35,-198 538.35,-202 517.35,-202 514.35,-198 430.65,-198 430.65,-162 541.35,-162 541.35,-198"/>
<text text-anchor="middle" x="486" y="-175.8" font-family="Times,serif" font-size="14.00">DatabaseModule</text>
</g>
<!-- AppModule -->
<g id="node4" class="node">
<title>AppModule</title>
<polygon fill="#8dd3c7" stroke="black" points="338.66,-263 335.66,-267 314.66,-267 311.66,-263 255.34,-263 255.34,-227 338.66,-227 338.66,-263"/>
<text text-anchor="middle" x="297" y="-240.8" font-family="Times,serif" font-size="14.00">AppModule</text>
</g>
<!-- DatabaseModule&#45;&gt;AppModule -->
<g id="edge1" class="edge">
<title>DatabaseModule&#45;&gt;AppModule</title>
<path fill="none" stroke="black" d="M486,-198.11C486,-217.34 486,-245 486,-245 486,-245 348.95,-245 348.95,-245"/>
<polygon fill="black" stroke="black" points="348.95,-241.5 338.95,-245 348.95,-248.5 348.95,-241.5"/>
</g>
<!-- HealthModule -->
<g id="node2" class="node">
<title>HealthModule</title>
<polygon fill="#8dd3c7" stroke="black" points="412.37,-198 409.37,-202 388.37,-202 385.37,-198 315.63,-198 315.63,-162 412.37,-162 412.37,-198"/>
<text text-anchor="middle" x="364" y="-175.8" font-family="Times,serif" font-size="14.00">HealthModule</text>
</g>
<!-- HealthModule&#45;&gt;AppModule -->
<g id="edge2" class="edge">
<title>HealthModule&#45;&gt;AppModule</title>
<path fill="none" stroke="black" d="M327.2,-198.11C327.2,-198.11 327.2,-216.99 327.2,-216.99"/>
<polygon fill="black" stroke="black" points="323.7,-216.99 327.2,-226.99 330.7,-216.99 323.7,-216.99"/>
</g>
<!-- ImageUploadModule -->
<g id="node3" class="node">
<title>ImageUploadModule</title>
<polygon fill="#8dd3c7" stroke="black" points="297.74,-198 294.74,-202 273.74,-202 270.74,-198 162.26,-198 162.26,-162 297.74,-162 297.74,-198"/>
<text text-anchor="middle" x="230" y="-175.8" font-family="Times,serif" font-size="14.00">ImageUploadModule</text>
</g>
<!-- ImageUploadModule&#45;&gt;AppModule -->
<g id="edge3" class="edge">
<title>ImageUploadModule&#45;&gt;AppModule</title>
<path fill="none" stroke="black" d="M276.52,-198.11C276.52,-198.11 276.52,-216.99 276.52,-216.99"/>
<polygon fill="black" stroke="black" points="273.02,-216.99 276.52,-226.99 280.02,-216.99 273.02,-216.99"/>
</g>
<!-- AppService -->
<g id="node5" class="node">
<title>AppService</title>
<ellipse fill="#fdb462" stroke="black" cx="81" cy="-180" rx="56.74" ry="18"/>
<text text-anchor="middle" x="81" y="-175.8" font-family="Times,serif" font-size="14.00">AppService</text>
</g>
<!-- AppService&#45;&gt;AppModule -->
<g id="edge4" class="edge">
<title>AppService&#45;&gt;AppModule</title>
<path fill="none" stroke="black" d="M81,-198.11C81,-217.34 81,-245 81,-245 81,-245 245.1,-245 245.1,-245"/>
<polygon fill="black" stroke="black" points="245.1,-248.5 255.1,-245 245.1,-241.5 245.1,-248.5"/>
</g>
<!-- ImageUploadService -->
<g id="node6" class="node">
<title>ImageUploadService</title>
<ellipse fill="#fdb462" stroke="black" cx="230" cy="-104" rx="92.6" ry="18"/>
<text text-anchor="middle" x="230" y="-99.8" font-family="Times,serif" font-size="14.00">ImageUploadService</text>
</g>
<!-- ImageUploadService&#45;&gt;ImageUploadModule -->
<g id="edge5" class="edge">
<title>ImageUploadService&#45;&gt;ImageUploadModule</title>
<path fill="none" stroke="black" d="M230,-122.01C230,-122.01 230,-151.85 230,-151.85"/>
<polygon fill="black" stroke="black" points="226.5,-151.85 230,-161.85 233.5,-151.85 226.5,-151.85"/>
</g>
</g>
</svg>
